<svg id="Capa_1" data-name="Capa 1" xmlns="http://www.w3.org/2000/svg" viewBox="0 110 640 221.6479593039">
  <g>
    <path d="m257.2065264439,307.4902723762c2.4586726861,0,3.9196489517.4671160933,5.0836633501,1.5915295348,1.1284007232,1.0968649497,1.5599635547,2.5301114834,1.5599635547,5.0520067499v1.6630589521c0,2.5218952665-.4632496384,3.9512753452-1.5599635547,5.0478986415-.8987393382.8593196213-1.8252084082,1.2631225142-3.5553866024,1.563981043l5.3489384103,7.2375204324h-4.4501990722l-4.9174057856-7.2058638322h-9.4665619402v7.2058638322h-3.5553866024v-22.1559953537h15.5123382423Zm-.8947822632,11.6242552707c2.1221400687,0,2.6883038645-.0988362556,3.321798349-.6611638031.4632194317-.4354594931.6611940098-.9975453871.6611940098-1.9598093725v-3.0605407772c0-.9620223319-.1979745781-1.524108226-.6611940098-1.9557012641-.6334944846-.5703021109-1.1996582803-.6691383665-3.321798349-.6691383665h-11.0621693767v8.3063535834h11.0621693767Z" fill="#ffff"/>
    <polygon points="273.8421000671 310.8093823307 273.8421000671 316.9224893216 289.5523826808 316.9224893216 289.1208198493 320.2444991174 273.8421000671 320.2444991174 273.8421000671 326.3257078547 290.4471649439 326.3257078547 290.4471649439 329.6477176505 270.286683258 329.6477176505 270.286683258 307.4917222968 289.5523826808 307.4917222968 289.5523826808 310.8093823307 273.8421000671 310.8093823307" fill="#ffff"/>
    <path d="m314.3587121027,313.2703809312c-.095030214-.9303657317-.2652750602-1.3936153701-.6652114981-1.7933101545-.5661335891-.5306709472-1.195640792-.6691383665-3.3257554241-.6691383665h-7.0355585726c-2.0944405435,0-2.6922911462.1384674193-3.3257554241.6691383665-.4592925633.4313513847-.6612242165.9936789321-.6612242165,1.9914659727v.7957647674c0,.9977870406.2019316531,1.563981043.6612242165,1.9914659727.6334642779.5384038572,1.2313148806.6691383665,3.3257554241.6691383665h7.9382549858c2.4587028928,0,3.9869796405.4671160934,5.0480798816,1.5956376432.9977266272.9936789321,1.5915899482,2.5893165754,1.5915899482,4.3828683834v.7957647674c0,1.7261304991-.5938633209,3.3534247426-1.5915899482,4.3512117832-1.061100241,1.1323880049-2.5893769888,1.5956376432-5.0480798816,1.5956376432h-8.8726382058c-4.3155679012,0-6.1408065161-1.4610366789-6.6396698297-5.3173422235l3.555416809-.4632496384c.0989872891.9303657317.2652750603,1.4332465337.6651510848,1.793551808.5622067208.5304292938,1.1957012053.6691383665,3.317841274.6691383665h7.0118161224c2.1261273504,0,2.6883340711-.1387090727,3.317841274-.6691383665.4672369201-.4315930381.6651510848-.9977870406.6651510848-1.9598093725v-.8274213676c0-.9661304404-.1979141647-1.5284579878-.6651510848-1.9639174809-.6295072029-.5304292938-1.1917139236-.6611638031-3.317841274-.6611638031h-7.9105554606c-2.486402418,0-3.9829923588-.4632496384-5.0797062751-1.5956376432-.9977568339-1.0292019874-1.5599635546-2.6209731756-1.5599635546-4.3867348384v-.7957647674c0-1.7618952078.5622067207-3.3891894512,1.5599635546-4.3869764918,1.0967139163-1.1244134415,2.5933038571-1.5915295348,5.0797062751-1.5915295348h8.8726382058c4.3195551829,0,6.1447635912,1.4649031339,6.6396698297,5.3132341151l-3.5513993207.4671160933Z" fill="#ffff"/>
    <path d="m346.2405333275,322.9983816833c0,2.5260033749-.4315326248,3.9592499087-1.5639206297,5.0520067499-1.1600573234,1.1321463514-2.6209731756,1.5953959898-5.0796760684,1.5953959898h-8.8687415442c-2.4587028928,0-3.9196791584-.4632496384-5.0836633501-1.5953959898-1.1284007232-1.0927568412-1.559933348-2.526003375-1.559933348-5.0520067499v-8.8648146758c0-2.52213692.4315326248-3.9553834537,1.559933348-5.0520067499,1.1639841918-1.1244134415,2.6249604573-1.5917711883,5.0836633501-1.5917711883h8.8687415442c2.4587028928,0,3.919618745.4673577468,5.0796760684,1.5917711883,1.1323880049,1.0966232962,1.5639206297,2.5298698299,1.5639206297,5.0520067499v8.8648146758Zm-18.6044752063-.6614054565c0,2.06299539.1346009643,2.7558157933.6690779531,3.3220097958.5305501205.5304292938,1.1600573234.6691383665,3.317841274.6691383665h7.0751897362c2.1617712323,0,2.7912784352-.1387090727,3.3257554241-.6691383665.5305501205-.5661940024.6651510848-1.2590144058.6651510848-3.3220097958v-7.5342708528c0-2.0627537366-.1346009643-2.7635487033-.6651510848-3.3258762508-.5344769889-.5304292938-1.1639841918-.6691383665-3.3257554241-.6691383665h-7.0751897362c-2.1577839506,0-2.7872911535.1387090727-3.317841274.6691383665-.5344769888.5623275474-.6690779531,1.2631225142-.6690779531,3.3258762508v7.5342708528Z" fill="#ffff"/>
    <path d="m356.097093708,307.4897890693v14.8471871575c0,2.06299539.1346009643,2.7558157933.6651510848,3.3220097958.5304897071.5304292938,1.1639841917.6691383665,3.3217681423.6691383665h7.0751897362c2.1617712323,0,2.7912784352-.1387090727,3.3218285557-.6691383665.5344769889-.5661940024.6651510848-1.2590144058.6651510848-3.3220097958v-14.8471871575h3.5553866024v15.508592614c0,2.5260033749-.4315326248,3.9592499087-1.559933348,5.0520067499-1.1640446051,1.1321463514-2.6249604573,1.5953959898-5.0836633501,1.5953959898h-8.8726684126c-2.4547760244,0-3.9196791584-.4632496384-5.0797364817-1.5953959898-1.1284007232-1.0927568412-1.559933348-2.526003375-1.559933348-5.0520067499v-15.508592614h3.5514597341Z" fill="#ffff"/>
    <path d="m396.7467057539,307.4902723762c2.4587028928,0,3.9236060267.4671160933,5.0836633501,1.5915295348,1.1284007232,1.0968649497,1.5599937613,2.5301114834,1.5599937613,5.0520067499v1.6630589521c0,2.5218952665-.4632496384,3.9512753452-1.5599937613,5.0478986415-.8987091315.8593196213-1.8252084082,1.2631225142-3.5553866024,1.563981043l5.3489384103,7.2375204324h-4.4501688655l-4.9174057856-7.2058638322h-9.4665921469v7.2058638322h-3.5553866024v-22.1559953537h15.5123382423Zm-.8987091315,11.6242552707c2.1300542187,0,2.6962482212-.0988362556,3.3257554241-.6611638031.463189225-.4354594931.6651510848-.9975453871.6651510848-1.9598093725v-3.0605407772c0-.9620223319-.2019618598-1.524108226-.6651510848-1.9557012641-.6295072029-.5703021109-1.1957012053-.6691383665-3.3257554241-.6691383665h-11.0582425084v8.3063535834h11.0582425084Z" fill="#ffff"/>
    <path d="m431.7520184762,324.3306170804c-.4988935203,3.8524390896-2.3241019285,5.3173422235-6.6475839798,5.3173422235h-8.8648146759c-2.4586424794,0-3.9236060267-.4632496384-5.0836633501-1.5995040982-1.1284007232-1.0927568412-1.559933348-2.52213692-1.559933348-5.0481402949v-8.8645730224c0-2.52213692.4315326248-3.9553834537,1.559933348-5.0520067499,1.1600573234-1.1285215499,2.6250208707-1.5917711883,5.0836633501-1.5917711883h8.8648146759c4.3234820513,0,6.1486904595,1.4610366789,6.6475839798,5.3093676601l-3.5554470157.4712242018c-.0989570824-.9303657317-.2652750603-1.3977234785-.6651510848-1.797418263-.5622067207-.5306709472-1.1600573234-.6652719115-3.317841274-.6652719115h-7.0751897362c-2.1617712324,0-2.7912784352.1346009643-3.3218285557.6652719115-.5344769889.5661940024-.6690779532,1.2628808607-.6690779532,3.3256345973v7.5383789612c0,2.0588872816.1346009643,2.7517076849.6690779532,3.3220097958.5305501205.5304292938,1.1600573234.6650302581,3.3218285557.6650302581h7.0751897362c2.1577839506,0,2.7556345533-.1346009643,3.317841274-.6650302581.3998760246-.3999364379.5661940025-.8631860763.6651510848-1.7976599164l3.5554470157.4671160933Z" fill="#ffff"/>
    <polygon points="441.7083817261 310.8093823307 441.7083817261 316.9224893216 457.4226214148 316.9224893216 456.9871015083 320.2444991174 441.7083817261 320.2444991174 441.7083817261 326.3257078547 458.3174036779 326.3257078547 458.3174036779 329.6477176505 438.1569219921 329.6477176505 438.1569219921 307.4917222968 457.4226214148 307.4917222968 457.4226214148 310.8093823307 441.7083817261 310.8093823307" fill="#ffff"/>
    <path d="m482.2285279431,313.2703809312c-.095030214-.9303657317-.2652750602-1.3936153701-.6652114982-1.7933101545-.5661335891-.5306709472-1.195640792-.6691383665-3.3217681424-.6691383665h-7.0395458543c-2.0944707502,0-2.6923213528.1384674193-3.3297427058.6691383665-.4592623566.4313513847-.6572369348.9936789321-.6572369348,1.9914659727v.7957647674c0,.9977870406.1979745781,1.563981043.6572369348,1.9914659727.6374213529.5384038572,1.2352719556.6691383665,3.3297427058.6691383665h7.9382549858c2.4547760244,0,3.9869796405.4671160934,5.0480798815,1.5956376432.9977266272.9936789321,1.5915899482,2.5893165754,1.5915899482,4.3828683834v.7957647674c0,1.7261304991-.593863321,3.3534247426-1.5915899482,4.3512117832-1.061100241,1.1323880049-2.5933038571,1.5956376432-5.0480798815,1.5956376432h-8.8726684125c-4.3155679012,0-6.1407763094-1.4610366789-6.6435966981-5.3173422235l3.5553866024-.4632496384c.1029443641.9303657317.2652750603,1.4332465337.6651510848,1.793551808.5661940025.5304292938,1.1957012053.6691383665,3.317841274.6691383665h7.0197906858c2.1221400687,0,2.6843467894-.1387090727,3.3138539923-.6691383665.46723692-.4315930381.6612242164-.9977870406.6612242164-1.9598093725v-.8274213676c0-.9661304404-.1939872964-1.5284579878-.6612242164-1.9639174809-.6295072029-.5304292938-1.1917139236-.6611638031-3.3138539923-.6611638031h-7.9145729489c-2.490359493,0-3.9829923588-.4632496384-5.0836633501-1.5956376432-.9937997589-1.0292019874-1.5599333479-2.6209731756-1.5599333479-4.3867348384v-.7957647674c0-1.7618952078.5661335891-3.3891894512,1.5599333479-4.3869764918,1.1006709913-1.1244134415,2.5933038571-1.5915295348,5.0836633501-1.5915295348h8.8726684125c4.3235424646,0,6.1447635911,1.4649031339,6.6396698297,5.3132341151l-3.5513993207.4671160933Z" fill="#ffff"/>
    <path d="m211.7662256334,236.3839902491c-3.9830225655-3.2821369787-9.0746302723-5.4715171162-14.3879248008-5.4715171162-3.9830225655,0-9.2923600189,2.29643261-9.2923600189,6.8970307399,0,4.8183278765,5.8636602308,6.6793009934,9.6249355613,7.8868432171l5.5310544817,1.6468681718c11.6243760975,3.3930559062,20.588117649,9.1973298049,20.588117649,22.5597982466,0,8.2154918911-1.9914961794,16.6487135288-8.6351230842,22.2352576809-6.5248542406,5.4717587696-15.2708358388,7.7759242896-23.6802848197,7.7759242896-10.5157607494,0-20.8058473956-3.5039748337-29.3261548906-9.4189260064l9.2923600189-17.3098773319c5.4241832493,4.7153835124,11.8460629191,8.5480070202,19.2577852727,8.5480070202,5.0916077069,0,10.5157607494-2.5180288115,10.5157607494-8.3264108186,0-6.0178955368-8.52426457-8.1045729637-13.1684509386-9.4189260065-13.6158722769-3.8326235078-22.5796138284-7.3365983415-22.5796138284-23.3280145222,0-16.7593908029,12.063853079-27.7106412521,28.7758496016-27.7106412521,8.4094187742,0,18.703492702,2.6248396306,26.115184849,6.7861118124l-8.6311358024,16.6484718754Z" fill="#ffff"/>
    <path d="m253.1530316949,283.3749509569l-5.7528017166,14.3484144639h-23.0190606032l32.0936606689-82.5860286427h23.6763277447l31.4364539409,82.5860286427h-23.1339063991l-5.4202261742-14.3484144639h-29.8804474612Zm15.1599773247-42.7163530641h-.2217472349l-8.9597542698,26.2856109353h18.0343845422l-8.8528830374-26.2856109353Z" fill="#ffff"/>
    <polygon points="337.8089428505 233.3200663238 337.8089428505 247.118235912 361.6040130527 247.118235912 361.6040130527 265.3028986852 337.8089428505 265.3028986852 337.8089428505 297.7252986482 316.1161971352 297.7252986482 316.1161971352 215.1392700056 364.0389734954 215.1392700056 364.0389734954 233.3200663238 337.8089428505 233.3200663238" fill="#ffff"/>
    <polygon points="395.5735991449 233.3200663238 395.5735991449 247.118235912 420.0338204319 247.118235912 420.0338204319 265.3028986852 395.5735991449 265.3028986852 395.5735991449 279.5403942216 421.3601353198 279.5403942216 421.3601353198 297.7252986482 373.8808534296 297.7252986482 373.8808534296 215.1392700056 421.3601353198 215.1392700056 421.3601353198 233.3200663238 395.5735991449 233.3200663238" fill="#ffff"/>
    <polygon points="465.7303040921 297.7236070742 444.0375583768 297.7236070742 444.0375583768 233.3186164031 426.1100752737 233.3186164031 426.1100752737 215.1378200849 483.6577871952 215.1378200849 483.6577871952 233.3186164031 465.7303040921 233.3186164031 465.7303040921 297.7236070742" fill="#ffff"/>
    <polygon points="480.113879131 215.1380617384 506.1221323342 215.1380617384 521.7295007905 237.5910491659 537.3289550967 215.1380617384 563.3372687133 215.1380617384 532.5739404207 258.0762526575 532.5739404207 297.724090381 510.8811947053 297.724090381 510.8811947053 258.0762526575 480.113879131 215.1380617384" fill="#ffff"/>
    <path d="m33.4491275861,274.6964510808h11.374914234l15.6944694169-22.3616424284s.783923749-3.5317649789,3.1396822777-.3919618745c2.3518014537,3.139561451,8.6311660091,14.1224685005,8.6311660091,14.1224685005h-14.8353159324l-4.8975751004,8.51635042h36.9595791691l-20.0536104534-32.0579865803s-1.8964659654-3.9474088903-7.1108034115-3.9474088903-8.0531007816,5.8477715173-8.0531007816,5.8477715173l-20.8494054276,30.2724093357Z" fill="#ffff"/>
    <path d="m59.4899133832,232.4170074304h12.3647116078s14.7798866753-20.2077853462,34.3900630722-20.2077853462c15.381694353,0,20.8098044706,7.83923749,20.8098044706,7.83923749,0,0-4.8263326466-13.5722236249-29.5557860689-13.5722236249-22.3222529182,0-38.0087930817,25.940771481-38.0087930817,25.940771481" fill="#ffff"/>
    <path d="m135.7248668131,233.2173636131h14.2453794797s-7.047490211-35.2173636131-37.2129981076-35.2173636131c-16.3794209802,0-23.4268809845,5.8199813721-23.4268809845,5.8199813721,0,0,40.4239379425-11.1769547592,46.3944996124,29.3973822411" fill="#ffff"/>
    <path d="m50.1021304635,279.9454053817h12.0559087222s7.558194543,26.3568986992,36.3696578199,19.4122622322c0,0-33.305220381,16.7555243479-48.4255665421-19.4122622322" fill="#ffff"/>
    <path d="m124.6821203314,280.7634022653h15.3262348892s-17.3692334574,34.9404287745-53.5369596241,34.9404287745c-20.0258807216,0-29.4251421796-15.7340552705-29.4251421796-15.7340552705,0,0,7.3562628899,8.5837717288,25.9528843595,8.5837717288,23.0903181604,0,41.682982555-27.7901452328,41.682982555-27.7901452328" fill="#ffff"/>
    <path d="m101.6848085374,270.775865722c-.3959189495.3958283295-.8037393308.7641081672-1.2273880122,1.1125724231-.4236184747.3404896925-.8512242312.6730048215-1.2867441377.9857043687-.2256741033.1464419827-.4553052816.2812846004-.6770223099.4079110013-.2256741033.1346009643-.4434340565.2532528018-.6532798597.3682798377-.2217170283.0869952372-.4513482066.1701240195-.6770223099.2573609102-.22570431.0869952372-.4513784133.1701240195-.6810095916.2571192568-.2019014465.0594467455-.4077901746.1188934909-.6215930528.1940477098-.2058887282.0712877638-.4117774563.1188934909-.6176359778.1464419827-.2138028782.0594467455-.4196916064.0952114541-.6255803345.1109189275-.2058585215.0118410184-.4157043247.0198155818-.6215930528.0198155818-.827481781,0-1.5955772299-.1623911095-2.3042863467-.4949062386-.7047520417-.328648674-1.3461304697-.8076057858-1.9360669223-1.4371129887-.5780652275-.6611638031-1.017542209-1.4690112423-1.2986455694-2.4271671193s-.4236184747-2.0509127182-.4236184747-3.2860034337v-.3644133827c0-.1266264009.0118712251-.2532528018.0276995252-.3641717293,0-.1425755277.003957075-.281042947.0118712251-.4117774563.0119014317-.1227599459.0277297319-.2612273652.043558032-.4076693479.134631171-1.2036757687.3563481993-2.2727505732.6651510848-3.2229318867.3127901673-.9422067501.7126661918-1.7539206444,1.2036153554-2.4428745927.4909491636-.6611638031,1.0412846592-1.2708554242,1.6510064869-1.8290748632.6136789028-.5584610925,1.2748729125-1.0652083494,1.9954532544-1.5243498794l.5622369274-.4277265831-.3642623493-.9460732051c-.0197853751,0-.039600957-.0198155818-.0593863321-.0635548539-.0197853751-.0434976186-.039600957-.0831287823-.0554292571-.1068108191-.0197853752-.055338637-.0356438819-.1109189275-.043558032-.1505500911-.0079141501-.0434976186-.0197853752-.0751542189-.039600957-.1068108191-.0950000074-.2573609102-.1860731464-.5304292938-.2692321353-.8155803492-.0870858573-.2851510555-.1781589963-.5860095843-.2652448536-.9028172399-.0792019139-.3126995472-.142545321-.6531892397-.186103353-1.009628059-.051472182-.3561971659-.0712575572-.7520254954-.0712575572-1.1797520785v-.6058251661c0-.0831287823.003957075-.1780985829.0118712251-.277176492.0079141501-.0949698007.0237726569-.2097551831.043558032-.3206741106.1306438893-1.346009643.4117472497-2.5417108483.831438856-3.587103616.4276057564-1.0451511142.9858554021-1.9557012641,1.6826932938-2.7277839947.7205803419-.7720827306,1.4569889839-1.3737997883,2.2211273577-1.8015263714.7641383739-.4315930381,1.5480621229-.6928204033,2.3597156038-.7759491856h.4513482066c.7720525239,0,1.4965899408.1582830011,2.1736424574.4750906568.6809793849.3126995472,1.3105167945.7996312224,1.8964659654,1.4610366789.5820223025.6253990945,1.0214992841,1.4054563885,1.3144738695,2.3358221202.2929745854.9344738401.4355199065,1.9837330627.4355199065,3.1596186862v.3404896925c-.0158283001.059205092-.0276995252.1186518375-.0276995252.1701240195v.1742321279c0,.1188934909-.0079443567.2336788734-.0119014318.3484642559-.0158283001.1109189275-.0237424502.22570431-.0395707503.3404896925-.1188028709,1.0016534956-.3127901673,1.9044707355-.5859793776,2.7082100663-.2692321353.7996312224-.6215930528,1.4885851708-1.0571129593,2.0627537366-.4553354883.5978506027-.9383402951,1.1480954783-1.4570191905,1.6509762803-.5146916137.4987726935-1.0768983345.9540477685-1.6787060122,1.3539842064l2.2607283147,4.2086362554c.3008887355-.3165660022.5938935276-.6531892397.874996888-1.009628059.2850604354-.3561971658.5622067207-.7244770035.8472671561-1.0927568412.2652750603-.3760127477.5265930455-.7600000588.7958251807-1.1599364967.2612877786-.3999364379.5146916137-.8196884577.7561940171-1.2471733874l2.6606345459,4.4659971656-3.1357252027,4.3828683834-.3127901672.3839873111,3.9829923588,7.6413233253h-6.9207429834l-1.5282767477-2.9969859233Zm-5.2855950033-10.5276319745c-.0593863321.0869952372-.1069014391.1503084377-.1544165461.1899396013-.047515107.047605727-.091073139.0949698007-.1266868142.1505500911-.0198155818.0316566002-.043558032.055338637-.0712877639.0671796554-.0276995252.0159491268-.0514721821.0357647087-.0712575572.0674213089-.0356438819.0236820368-.0633434071.051472182-.0831589889.0633132004-.0197853751.0118410184-.0514419754.0355230552-.0870858573.0671796554-.2058887282.1981558182-.4117774563.4238601282-.6097218277.6812210384-.1979745781.2612273652-.3800906494.514480167-.5463784206.7718410772-.190060428.2890175104-.3325755424.5860095843-.4394769815.9028172399-.1029443641.3168076557-.1742019212.6493227847-.2138028782.9898124772-.0197853751.0277901452-.0237424502.0671796554-.0237424502.1068108191v.3206741106c0,.4040445463.0474849003.7522671488.1543863394,1.053367331.0989872891.3008585288.2534038352.565952349.4672067134.7957647674.2058887282.2017806197.4276057564.3641717293.6770223099.4949062386.2415326101.1266264009.4869920885.1940477098.732451567.1940477098h.3127901673c.0752448389,0,.1504594711-.0159491268.2256741033-.0437392721.0752448389,0,.1504594711-.00773291.2256741033-.0236820368.0752448389-.0159491268.1544165461-.0316566002.2256741033-.0633132004.186103353-.055338637.3761335744-.1227599459.5622369274-.1940477098.1900302214-.0712877639.3800906494-.1623911095.5701208708-.281042947.1860731463-.0831287823.3682194243-.1901812547.5503354956-.3168076556.1781589963-.1346009643.3523911242-.2653354736.5226359705-.4076693479v-.0872368907l-2.7991925853-5.4993072614Zm3.1238539776-7.0238987943c.0316566002-.0118410184.0514419754-.0355230552.0712575572-.0671796554.0158283001,0,.0316566002-.003866455.039600957-.0159491268.0118712251-.0157074734.0237424502-.0393895102.0435278253-.0710461104.0198155818-.0239236902.039600957-.0357647087.0593863321-.0357647087.2415326101-.2336788734.4790779385-.4750906568.7047520418-.732451567s.4315628315-.5304292938.6255803345-.8155803492c.2019014465-.3168076556.3681892176-.6531892397.4909491636-1.009628059.1227297392-.3603052743.1979443714-.7363180219.2375453284-1.1403625683v-.1266264009c0-.0277901452.0118712251-.0594467455.0276995252-.0869952372v-.3404896925c0-.3445978009-.0316566002-.6572973481-.0950000074-.9463148585-.0673306888-.2851510554-.178189203-.5463784206-.3246613924-.7720827306-.134631171-.229570765-.2969618672-.4156439113-.4790779385-.5384038572-.1900302214-.1307345093-.4077901746-.1979141648-.6532798597-.1979141648-.2415024034,0-.4751208634.0671796554-.69285061.1979141648-.2138028782.1227599459-.4315628314.3088330922-.6334944846.5384038572-.1900302214.2534944552-.3484038425.5425119656-.4830350135.8590779678-.1306438893.3129412007-.2177599533.6691383665-.2533736285,1.0729412594v.0396311636c-.0198155818.0316566002-.0316868069.0594467455-.0316868069.0872368907v.3008585288c0,.2851510554.0277297319.5661940024.0752146322.839262386.043558032.273310037.1069014391.5384038572.182146278.7918983124.0950000074.2612273652.1900302214.5147218204.2811033604.7522671488.095030214.2493863468.2019014465.4830652202.3127901672.7087695301.0197853752.0316566002.0395707503.0633132004.0593863321.1068108191.0158283001.0434976186.0356136753.0792623273.051472182.1109189275,0,.055338637.0079141501.0988362556.0316566002.1227599459.0197853751.0355230552.0356438819.0633132004.0593863321.0949698007.0158283001.0236820368.0356438819.0514721821.051472182.0831287823.0197853752.0236820368.039600957.055338637.0554292571.0831287822,0,.0277901452.00791415.0555802905.0316868069.0872368907.0158283001.0275484918.0395707503.055338637.0554292571.0831287823v-.0831287823c.0356136753.0275484918.0712575572.0316566002.0989872891.0195739284" fill="#ffff"/>
    <path d="m101.2243681203,274.6964510808h11.3788562057l15.6905274452-22.3616424284s.783923749-3.5317649789,3.1396822777-.3919618745c2.3557585287,3.139561451,8.6351230842,14.1224685005,8.6351230842,14.1224685005h-14.8353159324l-4.8975902038,8.51635042h36.9595942725l-20.0615246035-32.0579865803s-1.8964659654-3.9474088903-7.1028892614-3.9474088903c-5.2143374461,0-8.0531007816,5.8477715173-8.0531007816,5.8477715173l-20.8533625026,30.2724093357Z" fill="#ffff"/>
    <polygon points="568.7519972718 217.573686728 566.8634152498 217.573686728 566.8634152498 216.892707343 571.4561596431 216.892707343 571.4561596431 217.573686728 569.559663471 217.573686728 569.559663471 223.0930512246 568.7519972718 223.0930512246 568.7519972718 217.573686728" fill="#ffff"/>
    <path d="m577.3705066822,220.36526723c-.0475453137-.8590779679-.1029443641-1.9003626271-.0911033457-2.6683372492h-.0237424502c-.2217170283.7206105486-.4750906568,1.4965597342-.791837899,2.3476631386l-1.0888299729,3.0090685951h-.6057647527l-1.0016534955-2.9534883047c-.2930047921-.8711606397-.5424515523-1.6707918621-.7206105486-2.4032434291h-.0237424502c-.0158283001.7679746222-.0554594637,1.8092592814-.1148457958,2.7357585581l-.1662575645,2.6567378843h-.7601812989l.4355199065-6.1962357732h1.017542209l1.0531256776,2.9969859233c.2613481919.7643498206.4711637884,1.4453292056.6295676162,2.0866774268h.0276693185c.1544165461-.6217742929.372206706-1.3027536778.6493227847-2.0866774268l1.104658273-2.9969859233h1.0214690774l.3800604427,6.1962357732h-.776009599l-.1543561328-2.7241591931Z" fill="#ffff"/>
  </g>
</svg>