<svg width="52" height="52" viewBox="0 0 92 92" fill="none" xmlns="http://www.w3.org/2000/svg">
<path d="M40.1933 35.8386C31.3893 35.8386 24.2256 43.0023 24.2256 51.8064C24.2256 60.6104 31.3893 67.7741 40.1933 67.7741C48.9974 67.7741 56.1611 60.6104 56.1611 51.8064C56.1611 43.0023 48.9974 35.8386 40.1933 35.8386ZM40.1933 38.7418C45.8677 38.7418 50.6957 42.3854 52.4943 47.4515H27.8924C29.6909 42.3854 34.519 38.7418 40.1933 38.7418ZM40.1933 64.8709C34.519 64.8709 29.6909 61.2273 27.8924 56.1612H47.6009C47.9362 57.7827 48.8246 59.2488 50.0962 60.3041C47.6982 63.0941 44.1519 64.8709 40.1933 64.8709ZM51.7453 57.8901C50.8787 57.0772 50.3546 55.9289 50.3546 54.7096V53.258H27.2159C27.1622 52.7804 27.1288 52.297 27.1288 51.8064C27.1288 51.3157 27.1607 50.8323 27.2145 50.3548H53.1707C53.2245 50.8323 53.2578 51.3157 53.2578 51.8064C53.2578 54.0027 52.7062 56.0712 51.7453 57.8901Z" fill="#fff" stroke="#fff"/>
<path d="M8.25825 85.1935C9.05996 85.1935 9.70987 84.5436 9.70987 83.7419C9.70987 82.9402 9.05996 82.2903 8.25825 82.2903C7.45655 82.2903 6.80664 82.9402 6.80664 83.7419C6.80664 84.5436 7.45655 85.1935 8.25825 85.1935Z" fill="#fff" stroke="#fff"/>
<path d="M85.1936 12.6129V1H60.5161C58.134 1 56.0336 2.17 54.7097 3.94823C53.3858 2.17 51.2853 1 48.9032 1H24.2258V12.6129H18.4194V51.8965H18.4252C18.4426 56.2281 19.7403 60.2577 21.9468 63.6458L18.8185 66.774L17.3669 65.3224L1 81.6894V82.2903C1 87.0937 4.90629 91 9.70968 91H10.3106L26.6776 74.6345L25.226 73.1829L28.3542 70.0547C31.7655 72.2756 35.8271 73.5807 40.1936 73.5807C50.709 73.5807 59.5044 66.0889 61.5279 56.1613H86.6452C89.0461 56.1613 91 54.2074 91 51.8065V12.6129H85.1936ZM60.5161 3.90323H82.2903V47.4516H61.5279C61.3247 46.4544 61.0315 45.4919 60.6961 44.5484H79.3871V41.6452H59.4361C58.5477 39.97 57.4387 38.4356 56.1613 37.0537V9.84758V8.25806C56.1613 5.8571 58.1152 3.90323 60.5161 3.90323ZM48.9032 3.90323C51.3042 3.90323 53.2581 5.8571 53.2581 8.25806V9.84758V34.4292C49.6145 31.6827 45.0985 30.0323 40.1936 30.0323C35.2886 30.0323 30.7726 31.6813 27.129 34.4292V3.90323H48.9032ZM24.2258 15.5161V37.0537C23.1182 38.2513 22.1413 39.5679 21.3226 40.9905V15.5161H24.2258ZM9.13629 88.0677C6.39129 87.7977 4.20226 85.6073 3.93226 82.8637L12.6129 74.1816L17.8184 79.3871L9.13629 88.0677ZM19.871 77.3345L14.6655 72.129L17.3669 69.4276L22.5724 74.6331L19.871 77.3345ZM23.1734 71.1289L20.8711 68.8266L23.709 65.9887C24.4189 66.8118 25.1882 67.5811 26.0113 68.291L23.1734 71.1289ZM40.1936 70.6774C29.7884 70.6774 21.3226 62.2116 21.3226 51.8065C21.3226 41.4013 29.7884 32.9355 40.1936 32.9355C50.5987 32.9355 59.0645 41.4013 59.0645 51.8065C59.0645 62.2116 50.5987 70.6774 40.1936 70.6774ZM88.0968 51.8065C88.0968 52.6063 87.445 53.2581 86.6452 53.2581H61.8937C61.9256 52.7761 61.9677 52.2971 61.9677 51.8065C61.9677 51.3158 61.9256 50.8368 61.8937 50.3548H85.1936V15.5161H88.0968V51.8065Z" fill="#fff" stroke="#fff"/>
<path d="M79.387 6.8064H59.0645V27.129H79.387V6.8064ZM76.4838 24.2257H61.9677V9.70962H76.4838V24.2257Z" fill="#fff" stroke="#fff"/>
<path d="M79.387 30.0322H59.0645V32.9355H79.387V30.0322Z" fill="#fff" stroke="#fff"/>
<path d="M73.5806 35.8386H59.0645V38.7418H73.5806V35.8386Z" fill="#fff" stroke="#fff"/>
<path d="M79.3866 35.8386H76.4834V38.7418H79.3866V35.8386Z" fill="#fff" stroke="#fff"/>
<path d="M50.3544 24.2258H47.4512V27.1291H50.3544V24.2258Z" fill="#fff" stroke="#fff"/>
<path d="M44.5484 24.2258H30.0322V27.1291H44.5484V24.2258Z" fill="#fff" stroke="#fff"/>
<path d="M50.3548 18.4194H30.0322V21.3227H50.3548V18.4194Z" fill="#fff" stroke="#fff"/>
<path d="M50.355 12.6128H35.8389V15.516H50.355V12.6128Z" fill="#fff" stroke="#fff"/>
<path d="M32.9355 12.6128H30.0322V15.516H32.9355V12.6128Z" fill="#fff" stroke="#fff"/>
<path d="M50.3548 6.8064H30.0322V9.70962H50.3548V6.8064Z" fill="#fff" stroke="#fff"/>
</svg>
