<svg width="52" height="52" viewBox="0 0 92 92" fill="none" xmlns="http://www.w3.org/2000/svg">
<path d="M90.2989 74.6406C89.295 73.0899 87.4383 72.2398 85.5486 72.3989C85.5171 72.2872 85.4883 72.1779 85.438 72.0501C84.4282 69.4874 81.6155 68.1229 78.8906 68.8711C76.6326 69.4932 73.2962 70.2628 70.2325 70.3991C66.4531 70.5672 63.7585 70.1439 62.5274 69.8891C62.1519 67.7705 60.4916 66.0469 57.9286 65.3014C56.7684 64.9118 55.5984 64.5358 54.4283 64.1597C51.68 63.2764 48.839 62.3627 46.1738 61.2786C45.1346 60.8562 44.0906 60.3878 43.0377 59.9157C39.0978 58.1494 35.0693 56.322 30.4507 56.3983C26.3975 56.4661 22.7459 57.9375 19.2153 59.3605C18.1917 59.7731 17.173 60.1837 16.1534 60.5549C12.5691 61.8592 8.70465 62.6981 4.96588 63.5098C4.03314 63.7124 3.1004 63.9146 2.17071 64.124C1.36309 64.3062 0.855159 65.109 1.03778 65.9172C1.21844 66.7244 2.01446 67.2327 2.83087 67.051C3.75201 66.8436 4.67681 66.6424 5.6026 66.4417C9.43805 65.6091 13.4041 64.7482 17.179 63.3745C18.2308 62.9917 19.2817 62.5687 20.3365 62.1434C23.6141 60.8225 27.003 59.4567 30.5015 59.3986C30.5737 59.3971 30.647 59.3966 30.7201 59.3966C34.5467 59.3966 38.2385 61.0515 41.8101 62.6533C42.8951 63.1401 43.9723 63.6226 45.0428 64.0582C47.8135 65.1847 50.7093 66.1154 53.5093 67.016C54.6686 67.3881 55.826 67.7602 57.0322 68.164C57.9727 68.438 60.0989 69.3169 59.5118 71.5568C59.1075 73.1024 57.5732 74.1815 55.7801 74.1815C53.6031 74.1815 51.4868 73.7788 49.4915 72.9848L38.0411 68.4282C37.2745 68.1201 36.3985 68.497 36.0928 69.2671C35.7861 70.0372 36.162 70.9094 36.9317 71.2156L48.3819 75.7721C50.1384 76.4715 51.9728 76.9122 53.8558 77.0905C53.9587 77.1275 54.0655 77.156 54.1783 77.1702L61.1995 78.0502C66.2117 78.5302 71.2512 78.2733 76.1755 77.2884L85.5396 75.4147C86.4205 75.2379 87.3406 75.5914 87.7801 76.2707C88.3758 77.1917 87.6766 78.1493 86.8971 78.6889C81.4562 82.4567 67.1434 86.8522 63.2271 87.3991C52.688 88.869 41.6802 87.6287 31.3863 83.81L22.0261 80.3375C19.1917 79.2855 16.1202 79.0727 13.1522 79.7216L2.18145 82.1154C1.37188 82.2918 0.857966 83.0911 1.03485 83.9008C1.21173 84.7095 2.00762 85.2246 2.82012 85.0463L13.7918 82.6525C16.2012 82.1276 18.6878 82.2991 20.983 83.1502L30.3431 86.6226C38.1612 89.5233 46.3768 91.0005 54.5162 91.0001C57.5771 91.0001 60.6282 90.791 63.6412 90.3701C67.8758 89.7792 82.7278 85.2255 88.6043 81.1558C90.9688 79.5186 91.6817 76.779 90.2989 74.6406ZM75.5876 74.3466C70.9504 75.275 66.2049 75.5156 61.5286 75.0684L60.9202 74.9921C61.4844 74.3872 61.9178 73.6738 62.2095 72.8861C63.7339 73.1814 66.5453 73.5654 70.3653 73.3964C73.7084 73.2479 77.2801 72.4266 79.6874 71.7639C80.814 71.4537 81.9927 71.9523 82.5372 72.9561L75.5876 74.3466ZM56.4327 58.7179C56.7237 59.002 57.1016 59.1441 57.4795 59.1441C57.8575 59.1441 58.2354 59.002 58.5264 58.7179L85.4297 32.481C92.4893 25.5977 92.8233 14.0548 86.1749 6.74911C82.9336 3.18807 78.543 1.14901 73.8116 1.0079C69.0889 0.867761 64.6045 2.6329 61.1739 5.97909L57.4795 9.58114L53.7852 5.97909C50.3536 2.6329 45.876 0.866296 41.1456 1.0079C36.4141 1.1495 32.0245 3.18807 28.7842 6.74911C22.1358 14.0543 22.4698 25.5977 29.5284 32.481L56.4327 58.7179ZM31.003 8.76815C33.6905 5.81454 37.3243 4.12362 41.2354 4.00643C41.3799 4.00253 41.5235 4.00009 41.667 4.00009C45.4073 4.00009 48.9522 5.45614 51.6915 8.12655L56.4327 12.7501C57.0147 13.3184 57.9444 13.3184 58.5264 12.7501L63.2676 8.12655C66.1114 5.35311 69.7999 3.88534 73.7227 4.00643C77.6338 4.12313 81.2676 5.81405 83.9561 8.76864C89.5284 14.8917 89.2501 24.566 83.336 30.3336L57.4795 55.5489L31.6221 30.3336C25.7081 24.5655 25.4307 14.8917 31.003 8.76815ZM48.4278 35.0719H52.4795V39.1236C52.4795 41.8805 54.7227 44.1236 57.4795 44.1236C60.2364 44.1236 62.4795 41.8805 62.4795 39.1236V35.0719H66.5313C69.2881 35.0719 71.5313 32.8287 71.5313 30.0719C71.5313 27.315 69.2881 25.0719 66.5313 25.0719H62.4795V21.0206C62.4795 18.2638 60.2364 16.0206 57.4795 16.0206C54.7227 16.0206 52.4795 18.2638 52.4795 21.0206V25.0719H48.4278C45.671 25.0719 43.4278 27.315 43.4278 30.0719C43.4278 32.8287 45.671 35.0719 48.4278 35.0719ZM48.4278 28.0719H53.9795C54.8077 28.0719 55.4795 27.4005 55.4795 26.5719V21.0206C55.4795 19.9176 56.377 19.0206 57.4795 19.0206C58.5821 19.0206 59.4795 19.9176 59.4795 21.0206V26.5719C59.4795 27.4005 60.1514 28.0719 60.9795 28.0719H66.5313C67.6338 28.0719 68.5313 28.9688 68.5313 30.0719C68.5313 31.1749 67.6338 32.0719 66.5313 32.0719H60.9795C60.1514 32.0719 59.4795 32.7432 59.4795 33.5719V39.1236C59.4795 40.2266 58.5821 41.1236 57.4795 41.1236C56.377 41.1236 55.4795 40.2266 55.4795 39.1236V33.5719C55.4795 32.7432 54.8077 32.0719 53.9795 32.0719H48.4278C47.3253 32.0719 46.4278 31.1749 46.4278 30.0719C46.4278 28.9688 47.3253 28.0719 48.4278 28.0719Z" fill="#fff" stroke="#fff"/>
</svg>
