<svg width="54" height="56" viewBox="0 0 74 96" fill="none" xmlns="http://www.w3.org/2000/svg">
<path d="M71.4337 46.9001C70.2337 45.7001 68.7337 45 67.2337 44.8C67.5337 42.5 66.8337 40.2001 65.1337 38.4001C64.0337 37.3001 62.5337 36.6 61.0337 36.3C61.1337 35.9 61.1337 35.6 61.1337 35.2001C61.1337 33.2001 60.3337 31.2 58.9337 29.8C58.2337 29.1 57.4337 28.6 56.5337 28.2001L64.6337 20.1C67.6337 17.1 67.6337 12.3 64.6337 9.30005C61.6337 6.30005 56.8337 6.30005 53.8337 9.30005L25.5337 37.6C24.4337 35.4 22.6337 32.3 20.3337 29.5C18.8337 27.6 16.8337 25.8 14.4337 24.1C10.9337 21.6 6.33372 21.6 2.93372 24.1C0.133722 26.1 -0.566278 29.8001 1.33372 32.7001L5.53372 39.2001C7.73372 42.6001 8.83372 46.6001 8.73372 50.7001L8.43372 63.1C8.43372 64.3 7.93372 65.4001 7.03372 66.3001L1.33372 72C0.433722 72.9 0.433722 74.4 1.33372 75.4C1.83372 75.9 2.43372 76.1 3.03372 76.1C3.63372 76.1 4.23372 75.9 4.73372 75.4L10.4337 69.7C12.1337 68 13.1337 65.7 13.2337 63.2L13.5337 50.8C13.6337 45.8 12.2337 40.8 9.53372 36.6L5.33372 30.1C4.83372 29.4 5.03372 28.5 5.73372 28C7.53372 26.7001 9.93372 26.7001 11.6337 28C13.6337 29.4 15.3337 31 16.5337 32.5C20.1337 37 22.5337 42.6 22.5337 42.6C22.8337 43.3 23.5337 43.9001 24.2337 44C25.0337 44.2001 25.8337 43.9 26.4337 43.3L57.1337 12.6C58.2337 11.5 60.0337 11.5 61.1337 12.6C62.2337 13.7 62.2337 15.5 61.1337 16.6L37.8337 40.2001C35.9337 42.1001 35.2337 44.7 35.7337 47.1C37.9337 57.3 30.1337 62 29.8337 62.2C28.7337 62.9 28.3337 64.3 28.9337 65.5C29.3337 66.3 30.1337 66.7 31.0337 66.7C31.4337 66.7 31.8337 66.6001 32.2337 66.4001C35.2337 64.7001 39.9337 60 40.8337 52.8C41.6337 53.1 42.4337 53.2001 43.3337 53.2001C43.7337 53.2001 44.1337 53.1 44.4337 53.1C44.7337 54.6 45.4337 56 46.5337 57.2001C48.0337 58.7001 49.9337 59.4001 51.9337 59.4001C52.2337 59.4001 52.5337 59.3 52.9337 59.3C53.1337 60.8 53.8337 62.3 55.0337 63.5C55.8337 64.3 56.8337 64.9001 57.8337 65.3001C53.8337 70.9001 49.0337 76 45.4337 79.6C42.2337 82.7 37.8337 84 33.4337 83L30.8337 82.4C30.0337 82.2001 29.2337 82.5 28.6337 83L20.6337 91C19.7337 91.9 19.7337 93.4 20.6337 94.4C21.1337 94.9 21.7337 95.1 22.3337 95.1C22.9337 95.1 23.5337 94.9 24.0337 94.4L31.0337 87.4L32.3337 87.7C38.2337 89.1 44.4337 87.3 48.7337 83.1C53.2337 78.7 59.3337 72.1001 63.8337 65C64.5337 64.6 65.2337 64.2 65.7337 63.6L71.5337 57.8C72.9337 56.4 73.7337 54.4001 73.7337 52.4001C73.7337 50.3001 72.9337 48.4001 71.4337 46.9001ZM45.2337 47.6C44.1337 48.7 42.3337 48.7 41.2337 47.6C40.1337 46.5 40.1337 44.7 41.2337 43.6L51.5337 33.3C52.6337 32.2 54.4337 32.2 55.5337 33.3C56.0337 33.8 56.3337 34.6 56.3337 35.3C56.3337 36.1 56.0337 36.8 55.5337 37.3L45.2337 47.6ZM53.8337 53.8C52.7337 54.9 50.9337 54.9 49.8337 53.8C48.7337 52.7001 48.7337 50.9 49.8337 49.8L57.7337 41.9001C58.3337 41.3001 59.0337 41.1 59.7337 41.1C60.4337 41.1 61.2337 41.4001 61.7337 41.9001C62.8337 43 62.8337 44.8001 61.7337 45.9001L53.8337 53.8ZM68.0337 54.4001L62.2337 60.2001C61.1337 61.3 59.3337 61.3 58.2337 60.2001C57.1337 59.1001 57.1337 57.3 58.2337 56.2001L64.0337 50.4001C65.1337 49.3001 66.9337 49.3001 68.0337 50.4001C68.5337 50.9001 68.8337 51.7001 68.8337 52.4001C68.9337 53.1001 68.6337 53.8001 68.0337 54.4001Z" fill="#fff"/>
<path d="M24.0338 11.4C25.3338 11.4 26.4338 10.3 26.4338 9V2.4C26.4338 1.1 25.3338 0 24.0338 0C22.7338 0 21.6338 1.1 21.6338 2.4V9C21.6338 10.3 22.7338 11.4 24.0338 11.4Z" fill="#fff"/>
<path d="M11.9336 15.0001C12.4336 15.5001 13.0336 15.7001 13.6336 15.7001C14.2336 15.7001 14.8336 15.5001 15.3336 15.0001C16.2336 14.1001 16.2336 12.6001 15.3336 11.6001L10.6336 6.9001C9.73359 6.0001 8.13359 6.0001 7.23359 6.9001C6.33359 7.8001 6.33359 9.3001 7.23359 10.3001L11.9336 15.0001Z" fill="#fff"/>
<path d="M34.4336 15.7001C35.0336 15.7001 35.6336 15.5001 36.1336 15.0001L40.8336 10.3001C41.7336 9.4001 41.7336 7.9001 40.8336 6.9001C39.9336 6.0001 38.3336 6.0001 37.4336 6.9001L32.7336 11.6001C31.8336 12.5001 31.8336 14.0001 32.7336 15.0001C33.2336 15.5001 33.8336 15.7001 34.4336 15.7001Z" fill="#fff"/>
</svg>
