<svg width="14" height="14" viewBox="0 0 14 14" fill="none" xmlns="http://www.w3.org/2000/svg">
<path d="M6.70578 11.2807C6.88116 11.1531 7.11884 11.1531 7.29422 11.2807L10.6993 13.7588C11.0912 14.044 11.619 13.6606 11.4689 13.1997L10.1671 9.20251C10.0994 8.9947 10.1745 8.767 10.3526 8.64029L13.7249 6.24064C14.1215 5.95835 13.9218 5.33325 13.435 5.33325H9.29754C9.08047 5.33325 8.88821 5.1932 8.82163 4.9866L7.4759 0.810197C7.32697 0.347993 6.67303 0.347992 6.5241 0.810196L5.17837 4.9866C5.11179 5.1932 4.91953 5.33325 4.70246 5.33325H0.565043C0.0781673 5.33325 -0.121541 5.95835 0.275151 6.24064L3.64739 8.64029C3.82546 8.76701 3.9006 8.9947 3.83292 9.20251L2.53109 13.1997C2.38098 13.6606 2.90879 14.044 3.30073 13.7588L6.70578 11.2807Z" fill="#E5DBAE"/>
</svg>
